<svg width="30" height="12" viewBox="0 0 30 12" fill="none" xmlns="http://www.w3.org/2000/svg">
<path d="M1.53965 11V4.444H0.621152L0.934652 3.3H2.68365V11H1.53965ZM6.52944 11.143C6.03811 11.143 5.58894 11.022 5.18194 10.78C4.77494 10.5343 4.44861 10.208 4.20294 9.801C3.96094 9.39033 3.83994 8.9375 3.83994 8.4425C3.83994 8.1785 3.87111 7.94017 3.93344 7.7275C3.99577 7.51483 4.09111 7.29117 4.21944 7.0565L6.38644 3.3H7.71744L6.21594 5.896C6.52027 5.83733 6.81727 5.8355 7.10694 5.8905C7.40027 5.94183 7.67527 6.04267 7.93194 6.193C8.18861 6.33967 8.41411 6.52667 8.60844 6.754C8.80644 6.97767 8.96044 7.2325 9.07044 7.5185C9.18044 7.8045 9.23544 8.1125 9.23544 8.4425C9.23544 8.81283 9.16394 9.16117 9.02094 9.4875C8.88161 9.81383 8.68728 10.1017 8.43794 10.351C8.19228 10.5967 7.90444 10.791 7.57444 10.934C7.24811 11.0733 6.89977 11.143 6.52944 11.143ZM6.52944 9.999C6.83011 9.999 7.09778 9.92567 7.33244 9.779C7.56711 9.63233 7.75227 9.43983 7.88794 9.2015C8.02361 8.96317 8.09144 8.71017 8.09144 8.4425C8.09144 8.16017 8.02177 7.90167 7.88244 7.667C7.74677 7.43233 7.56161 7.24533 7.32694 7.106C7.09227 6.963 6.83011 6.8915 6.54044 6.8915C6.23977 6.8915 5.97211 6.96483 5.73744 7.1115C5.50277 7.25817 5.31761 7.44883 5.18194 7.6835C5.04994 7.91817 4.98394 8.17117 4.98394 8.4425C4.98394 8.7395 5.05544 9.00533 5.19844 9.24C5.34511 9.47467 5.53577 9.65983 5.77044 9.7955C6.00511 9.93117 6.25811 9.999 6.52944 9.999ZM12.8863 11.143C12.4317 11.143 12.021 11.0403 11.6543 10.835C11.2913 10.626 10.9778 10.3382 10.7138 9.9715C10.4498 9.60483 10.2482 9.18133 10.1088 8.701C9.96949 8.217 9.89982 7.7 9.89982 7.15C9.89982 6.6 9.96949 6.083 10.1088 5.599C10.2482 5.115 10.4498 4.6915 10.7138 4.3285C10.9778 3.96183 11.2913 3.67583 11.6543 3.4705C12.021 3.2615 12.4317 3.157 12.8863 3.157C13.3337 3.157 13.7407 3.2615 14.1073 3.4705C14.474 3.67583 14.7857 3.96183 15.0423 4.3285C15.3027 4.6915 15.5025 5.115 15.6418 5.599C15.7812 6.083 15.8508 6.6 15.8508 7.15C15.8508 7.7 15.7812 8.217 15.6418 8.701C15.5025 9.18133 15.3027 9.60483 15.0423 9.9715C14.7857 10.3382 14.474 10.626 14.1073 10.835C13.7407 11.0403 13.3337 11.143 12.8863 11.143ZM12.8863 9.999C13.308 9.999 13.6582 9.867 13.9368 9.603C14.2192 9.33533 14.43 8.98517 14.5693 8.5525C14.7087 8.11983 14.7783 7.65233 14.7783 7.15C14.7783 6.622 14.705 6.1435 14.5583 5.7145C14.4153 5.28183 14.2027 4.939 13.9203 4.686C13.6417 4.42933 13.297 4.301 12.8863 4.301C12.56 4.301 12.2758 4.378 12.0338 4.532C11.7955 4.686 11.5975 4.89683 11.4398 5.1645C11.2858 5.43217 11.1685 5.7365 11.0878 6.0775C11.0108 6.4185 10.9723 6.776 10.9723 7.15C10.9723 7.65233 11.0438 8.11983 11.1868 8.5525C11.3298 8.98517 11.5425 9.33533 11.8248 9.603C12.1108 9.867 12.4647 9.999 12.8863 9.999ZM18.8188 11.77H29.8188V0.77H18.8188V11.77Z" fill="#97979A"/>
</svg>
