<svg width="53" height="53" viewBox="0 0 53 53" fill="none" xmlns="http://www.w3.org/2000/svg">
<g filter="url(#filter0_d_151_1978)">
<path d="M22 40C29.4558 40 35.5 33.9558 35.5 26.5C35.5 19.0442 29.4558 13 22 13C14.5442 13 8.5 19.0442 8.5 26.5C8.5 33.9558 14.5442 40 22 40Z" fill="url(#paint0_linear_151_1978)"/>
<path d="M22 40C29.4558 40 35.5 33.9558 35.5 26.5C35.5 19.0442 29.4558 13 22 13C14.5442 13 8.5 19.0442 8.5 26.5C8.5 33.9558 14.5442 40 22 40Z" fill="url(#paint1_radial_151_1978)"/>
<path d="M22.0013 37.0948C27.8524 37.0948 32.5957 32.3516 32.5957 26.5005C32.5957 20.6494 27.8524 15.9061 22.0013 15.9061C16.1502 15.9061 11.407 20.6494 11.407 26.5005C11.407 32.3516 16.1502 37.0948 22.0013 37.0948Z" fill="url(#paint2_linear_151_1978)"/>
<path d="M22.0013 35.4732C26.9568 35.4732 30.9741 31.456 30.9741 26.5005C30.9741 21.5449 26.9568 17.5277 22.0013 17.5277C17.0458 17.5277 13.0286 21.5449 13.0286 26.5005C13.0286 31.456 17.0458 35.4732 22.0013 35.4732Z" fill="url(#paint3_linear_151_1978)"/>
<path d="M22.0013 33.8516C26.0613 33.8516 29.3525 30.5604 29.3525 26.5005C29.3525 22.4405 26.0613 19.1493 22.0013 19.1493C17.9414 19.1493 14.6501 22.4405 14.6501 26.5005C14.6501 30.5604 17.9414 33.8516 22.0013 33.8516Z" fill="url(#paint4_linear_151_1978)"/>
<path d="M22.0013 33.8516C26.0613 33.8516 29.3525 30.5604 29.3525 26.5005C29.3525 22.4405 26.0613 19.1493 22.0013 19.1493C17.9414 19.1493 14.6501 22.4405 14.6501 26.5005C14.6501 30.5604 17.9414 33.8516 22.0013 33.8516Z" fill="url(#paint5_radial_151_1978)"/>
<path d="M22.0013 32.2301C25.1657 32.2301 27.7309 29.6648 27.7309 26.5005C27.7309 23.3361 25.1657 20.7709 22.0013 20.7709C18.837 20.7709 16.2717 23.3361 16.2717 26.5005C16.2717 29.6648 18.837 32.2301 22.0013 32.2301Z" fill="url(#paint6_linear_151_1978)"/>
<path d="M21.9997 22.465C21.3306 22.465 20.7868 23.0107 20.7856 23.6821C20.7848 24.2224 20.7842 24.7628 20.7838 25.3031C21.5943 25.3026 22.4049 25.3026 23.2154 25.3031C23.2151 24.7628 23.2146 24.2224 23.2137 23.6821C23.2125 23.0107 22.6687 22.465 21.9997 22.465Z" fill="url(#paint7_linear_151_1978)"/>
<path d="M22 24.0865C21.3293 24.0866 20.7847 24.6318 20.7842 25.3031C20.7833 26.6414 20.7839 27.9797 20.7859 29.318C20.7871 29.9893 21.331 30.535 22 30.5351C22.6691 30.5351 23.2129 29.9893 23.2141 29.318C23.2161 27.9797 23.2167 26.6414 23.2159 25.3031C23.2152 24.6317 22.6707 24.0866 22 24.0865Z" fill="url(#paint8_linear_151_1978)"/>
<path d="M22.8091 30.6072C19.6635 30.6081 17.0767 28.0262 17.0853 24.8868C17.0874 24.292 17.1822 23.7182 17.3554 23.1777C16.6758 24.1181 16.2716 25.2636 16.2717 26.4998C16.2764 29.632 18.8692 32.2247 22.0013 32.2294C24.5444 32.2287 26.7236 30.5156 27.4658 28.205C26.4194 29.6475 24.7196 30.6045 22.8091 30.6072Z" fill="url(#paint9_linear_151_1978)"/>
</g>
<defs>
<filter id="filter0_d_151_1978" x="0.0625" y="0.34375" width="52.3125" height="52.3125" filterUnits="userSpaceOnUse" color-interpolation-filters="sRGB">
<feFlood flood-opacity="0" result="BackgroundImageFix"/>
<feColorMatrix in="SourceAlpha" type="matrix" values="0 0 0 0 0 0 0 0 0 0 0 0 0 0 0 0 0 0 127 0" result="hardAlpha"/>
<feOffset dx="4.21875"/>
<feGaussianBlur stdDeviation="6.32812"/>
<feComposite in2="hardAlpha" operator="out"/>
<feColorMatrix type="matrix" values="0 0 0 0 0 0 0 0 0 0 0 0 0 0 0 0 0 0 0.6 0"/>
<feBlend mode="normal" in2="BackgroundImageFix" result="effect1_dropShadow_151_1978"/>
<feBlend mode="normal" in="SourceGraphic" in2="effect1_dropShadow_151_1978" result="shape"/>
</filter>
<linearGradient id="paint0_linear_151_1978" x1="12.454" y1="36.0459" x2="31.5459" y2="16.954" gradientUnits="userSpaceOnUse">
<stop stop-color="#FF4747"/>
<stop offset="1" stop-color="#FFF200"/>
</linearGradient>
<radialGradient id="paint1_radial_151_1978" cx="0" cy="0" r="1" gradientUnits="userSpaceOnUse" gradientTransform="translate(22 26.5) scale(13.5)">
<stop stop-color="#FF4747" stop-opacity="0.8"/>
<stop offset="0.494164" stop-color="#FFFA78" stop-opacity="0"/>
</radialGradient>
<linearGradient id="paint2_linear_151_1978" x1="-2.57585" y1="51.0776" x2="46.574" y2="1.92777" gradientUnits="userSpaceOnUse">
<stop stop-color="#FFCB00"/>
<stop offset="0.5" stop-color="#FFF200"/>
<stop offset="0.6048" stop-color="#FFF52F"/>
<stop offset="0.8789" stop-color="#FEFCA6"/>
<stop offset="1" stop-color="#FEFFD6"/>
</linearGradient>
<linearGradient id="paint3_linear_151_1978" x1="13.2072" y1="35.2946" x2="50.184" y2="-1.68226" gradientUnits="userSpaceOnUse">
<stop stop-color="#FFB11D"/>
<stop offset="0.2603" stop-color="#FFC315"/>
<stop offset="1" stop-color="#FFF200"/>
</linearGradient>
<linearGradient id="paint4_linear_151_1978" x1="-16.7777" y1="65.2795" x2="46.0577" y2="2.44405" gradientUnits="userSpaceOnUse">
<stop stop-color="#FF3838"/>
<stop offset="1" stop-color="#FFF200"/>
</linearGradient>
<radialGradient id="paint5_radial_151_1978" cx="0" cy="0" r="1" gradientUnits="userSpaceOnUse" gradientTransform="translate(22.0013 26.5005) scale(8.52209)">
<stop stop-color="#FFCB00" stop-opacity="0"/>
<stop offset="0.4163" stop-color="#FFC901" stop-opacity="0.333"/>
<stop offset="0.5662" stop-color="#FFC203" stop-opacity="0.453"/>
<stop offset="0.6731" stop-color="#FFB708" stop-opacity="0.539"/>
<stop offset="0.7596" stop-color="#FFA60E" stop-opacity="0.608"/>
<stop offset="0.8337" stop-color="#FF9017" stop-opacity="0.667"/>
<stop offset="0.8992" stop-color="#FF7421" stop-opacity="0.719"/>
<stop offset="0.957" stop-color="#FF552D" stop-opacity="0.766"/>
<stop offset="1" stop-color="#FF3838" stop-opacity="0.8"/>
</radialGradient>
<linearGradient id="paint6_linear_151_1978" x1="-3.08553" y1="51.5873" x2="45.9978" y2="2.504" gradientUnits="userSpaceOnUse">
<stop stop-color="#FFCB00"/>
<stop offset="0.5" stop-color="#FFF200"/>
<stop offset="0.6048" stop-color="#FFF52F"/>
<stop offset="0.8789" stop-color="#FEFCA6"/>
<stop offset="1" stop-color="#FEFFD6"/>
</linearGradient>
<linearGradient id="paint7_linear_151_1978" x1="16.9932" y1="29.2481" x2="30.64" y2="15.6013" gradientUnits="userSpaceOnUse">
<stop stop-color="#FFB11D"/>
<stop offset="0.2603" stop-color="#FFC315"/>
<stop offset="1" stop-color="#FFF200"/>
</linearGradient>
<linearGradient id="paint8_linear_151_1978" x1="15.7818" y1="33.528" x2="29.4302" y2="19.8796" gradientUnits="userSpaceOnUse">
<stop stop-color="#FFB11D"/>
<stop offset="0.2603" stop-color="#FFC315"/>
<stop offset="1" stop-color="#FFF200"/>
</linearGradient>
<linearGradient id="paint9_linear_151_1978" x1="10.2269" y1="38.3272" x2="46.1938" y2="2.36031" gradientUnits="userSpaceOnUse">
<stop stop-color="#FFCB00"/>
<stop offset="0.5" stop-color="#FFF200"/>
<stop offset="0.6048" stop-color="#FFF52F"/>
<stop offset="0.8789" stop-color="#FEFCA6"/>
<stop offset="1" stop-color="#FEFFD6"/>
</linearGradient>
</defs>
</svg>
