<svg width="123" height="12" viewBox="0 0 123 12" fill="none" xmlns="http://www.w3.org/2000/svg">
<path d="M0.418 7.15C0.418 6.03533 0.803 5.093 1.573 4.323C2.343 3.54567 3.28533 3.157 4.4 3.157C5.51467 3.157 6.457 3.54567 7.227 4.323C8.00433 5.093 8.393 6.03533 8.393 7.15C8.393 8.25733 8.00433 9.19967 7.227 9.977C6.457 10.7543 5.51467 11.143 4.4 11.143C3.28533 11.143 2.343 10.7543 1.573 9.977C0.803 9.19233 0.418 8.25 0.418 7.15ZM7.37 7.15C7.37 6.29933 7.084 5.588 6.512 5.016C5.95467 4.43667 5.25067 4.147 4.4 4.147C3.55667 4.147 2.849 4.43667 2.277 5.016C1.71233 5.59533 1.43 6.30667 1.43 7.15C1.43 7.986 1.71233 8.69733 2.277 9.284C2.849 9.856 3.55667 10.142 4.4 10.142C5.25067 10.142 5.95467 9.856 6.512 9.284C7.084 8.69733 7.37 7.986 7.37 7.15ZM12.2629 5.357C12.9082 5.357 13.4252 5.56233 13.8139 5.973C14.2025 6.37633 14.3969 6.92633 14.3969 7.623V11H13.4399V7.678C13.4399 7.238 13.3189 6.89333 13.0769 6.644C12.8349 6.39467 12.5012 6.27 12.0759 6.27C11.5845 6.27 11.1959 6.424 10.9099 6.732C10.6239 7.03267 10.4809 7.48367 10.4809 8.085V11H9.52385V3.3H10.4809V6.292C10.8622 5.66867 11.4562 5.357 12.2629 5.357ZM21.6728 5.357C22.2962 5.357 22.7948 5.55867 23.1688 5.962C23.5502 6.36533 23.7408 6.90433 23.7408 7.579V11H22.7838V7.612C22.7838 7.194 22.6738 6.86767 22.4538 6.633C22.2412 6.391 21.9478 6.27 21.5738 6.27C21.1485 6.27 20.8148 6.413 20.5728 6.699C20.3382 6.97767 20.2208 7.392 20.2208 7.942V11H19.2638V7.612C19.2638 7.194 19.1575 6.86767 18.9448 6.633C18.7395 6.391 18.4572 6.27 18.0978 6.27C17.6798 6.27 17.3388 6.41667 17.0748 6.71C16.8182 6.996 16.6898 7.40667 16.6898 7.942V11H15.7328V5.5H16.6898V6.237C17.0638 5.65033 17.6102 5.357 18.3288 5.357C19.0695 5.357 19.6085 5.66867 19.9458 6.292C20.3272 5.66867 20.9028 5.357 21.6728 5.357ZM29.7098 10.307C29.1525 10.8643 28.4668 11.143 27.6528 11.143C26.8388 11.143 26.1531 10.8643 25.5958 10.307C25.0385 9.74967 24.7598 9.064 24.7598 8.25C24.7598 7.436 25.0385 6.75033 25.5958 6.193C26.1531 5.63567 26.8388 5.357 27.6528 5.357C28.4668 5.357 29.1525 5.63567 29.7098 6.193C30.2745 6.75767 30.5568 7.44333 30.5568 8.25C30.5568 9.05667 30.2745 9.74233 29.7098 10.307ZM27.6528 10.208C28.2028 10.208 28.6648 10.021 29.0388 9.647C29.4128 9.273 29.5998 8.80733 29.5998 8.25C29.5998 7.69267 29.4128 7.227 29.0388 6.853C28.6648 6.479 28.2028 6.292 27.6528 6.292C27.1101 6.292 26.6518 6.479 26.2778 6.853C25.9038 7.227 25.7168 7.69267 25.7168 8.25C25.7168 8.80733 25.9038 9.273 26.2778 9.647C26.6518 10.021 27.1101 10.208 27.6528 10.208ZM34.5588 5.5V6.424H33.0958V9.405C33.0958 9.67633 33.1472 9.87067 33.2498 9.988C33.3598 10.098 33.5248 10.1567 33.7448 10.164C33.9648 10.164 34.2362 10.1567 34.5588 10.142V11C33.7155 11.11 33.0995 11.0403 32.7108 10.791C32.3295 10.5417 32.1388 10.0797 32.1388 9.405V6.424H31.0498V5.5H32.1388V4.246L33.0958 3.96V5.5H34.5588ZM40.0545 10.307C39.4972 10.8643 38.8115 11.143 37.9975 11.143C37.1835 11.143 36.4979 10.8643 35.9405 10.307C35.3832 9.74967 35.1045 9.064 35.1045 8.25C35.1045 7.436 35.3832 6.75033 35.9405 6.193C36.4979 5.63567 37.1835 5.357 37.9975 5.357C38.8115 5.357 39.4972 5.63567 40.0545 6.193C40.6192 6.75767 40.9015 7.44333 40.9015 8.25C40.9015 9.05667 40.6192 9.74233 40.0545 10.307ZM37.9975 10.208C38.5475 10.208 39.0095 10.021 39.3835 9.647C39.7575 9.273 39.9445 8.80733 39.9445 8.25C39.9445 7.69267 39.7575 7.227 39.3835 6.853C39.0095 6.479 38.5475 6.292 37.9975 6.292C37.4549 6.292 36.9965 6.479 36.6225 6.853C36.2485 7.227 36.0615 7.69267 36.0615 8.25C36.0615 8.80733 36.2485 9.273 36.6225 9.647C36.9965 10.021 37.4549 10.208 37.9975 10.208ZM42.9867 11H42.0297V2.97H42.9867V11ZM49.0007 6.446V5.5H49.9577V11H49.0007V10.054C48.5314 10.78 47.8384 11.143 46.9217 11.143C46.1444 11.143 45.488 10.8643 44.9527 10.307C44.41 9.74233 44.1387 9.05667 44.1387 8.25C44.1387 7.45067 44.41 6.76867 44.9527 6.204C45.4954 5.63933 46.1517 5.357 46.9217 5.357C47.8384 5.357 48.5314 5.72 49.0007 6.446ZM47.0427 10.219C47.6 10.219 48.0657 10.032 48.4397 9.658C48.8137 9.26933 49.0007 8.8 49.0007 8.25C49.0007 7.69267 48.8137 7.227 48.4397 6.853C48.0657 6.47167 47.6 6.281 47.0427 6.281C46.4927 6.281 46.0307 6.47167 45.6567 6.853C45.2827 7.227 45.0957 7.69267 45.0957 8.25C45.0957 8.8 45.2827 9.26933 45.6567 9.658C46.0307 10.032 46.4927 10.219 47.0427 10.219ZM53.4316 11.77H64.4316V0.77H53.4316V11.77ZM70.4926 11.143C69.774 11.143 69.158 10.978 68.6446 10.648C68.1386 10.3107 67.783 9.845 67.5776 9.251L68.4576 8.745C68.751 9.67633 69.4366 10.142 70.5146 10.142C71.0353 10.142 71.435 10.0357 71.7136 9.823C71.9996 9.61033 72.1426 9.32067 72.1426 8.954C72.1426 8.59467 72.0033 8.31967 71.7246 8.129C71.4753 7.96033 71.0096 7.766 70.3276 7.546L69.5906 7.304C69.4293 7.238 69.2166 7.14267 68.9526 7.018C68.696 6.886 68.509 6.754 68.3916 6.622C68.069 6.27 67.9076 5.841 67.9076 5.335C67.9076 4.66033 68.1423 4.13233 68.6116 3.751C69.081 3.355 69.653 3.157 70.3276 3.157C70.929 3.157 71.457 3.30733 71.9116 3.608C72.3663 3.90867 72.7073 4.31933 72.9346 4.84L72.0766 5.335C71.7466 4.543 71.1636 4.147 70.3276 4.147C69.9096 4.147 69.5723 4.24967 69.3156 4.455C69.059 4.66033 68.9306 4.939 68.9306 5.291C68.9306 5.62833 69.0516 5.885 69.2936 6.061C69.543 6.24433 69.961 6.42767 70.5476 6.611L70.9986 6.754C71.248 6.84933 71.3836 6.90067 71.4056 6.908C71.6403 6.996 71.897 7.117 72.1756 7.271C72.3736 7.381 72.5716 7.54967 72.7696 7.777C73.0263 8.03367 73.1546 8.41867 73.1546 8.932C73.1546 9.60667 72.909 10.1457 72.4176 10.549C71.919 10.945 71.2773 11.143 70.4926 11.143ZM75.3353 7.59V10.032H78.9103V11H74.3123V3.3H78.8553V4.268H75.3353V6.633H78.5803V7.59H75.3353ZM81.1683 7.59V10.032H84.7433V11H80.1453V3.3H84.6883V4.268H81.1683V6.633H84.4133V7.59H81.1683ZM85.9783 3.3H88.9813C90.0227 3.3 90.8917 3.674 91.5883 4.422C92.285 5.16267 92.6333 6.072 92.6333 7.15C92.6333 8.22067 92.285 9.13367 91.5883 9.889C90.8917 10.6297 90.0227 11 88.9813 11H85.9783V3.3ZM87.0013 10.032H88.9813C89.766 10.032 90.4077 9.757 90.9063 9.207C91.405 8.64967 91.6543 7.964 91.6543 7.15C91.6543 6.336 91.405 5.65033 90.9063 5.093C90.4077 4.543 89.766 4.268 88.9813 4.268H87.0013V10.032ZM101.024 7.007C101.383 7.183 101.665 7.42867 101.871 7.744C102.076 8.05933 102.179 8.41867 102.179 8.822C102.179 9.438 101.962 9.955 101.53 10.373C101.097 10.791 100.569 11 99.9458 11H96.6238V3.3H99.7038C100.312 3.3 100.822 3.50167 101.233 3.905C101.651 4.30833 101.86 4.807 101.86 5.401C101.86 6.09033 101.581 6.62567 101.024 7.007ZM99.7038 4.257H97.6468V6.611H99.7038C100.026 6.611 100.298 6.49733 100.518 6.27C100.738 6.04267 100.848 5.764 100.848 5.434C100.848 5.11133 100.734 4.83633 100.507 4.609C100.287 4.37433 100.019 4.257 99.7038 4.257ZM97.6468 10.043H99.9458C100.29 10.043 100.58 9.922 100.815 9.68C101.049 9.438 101.167 9.141 101.167 8.789C101.167 8.44433 101.046 8.151 100.804 7.909C100.576 7.667 100.29 7.546 99.9458 7.546H97.6468V10.043ZM107.206 8.415V5.5H108.163V11H107.206V10.208C106.824 10.8313 106.23 11.143 105.424 11.143C104.778 11.143 104.261 10.9413 103.873 10.538C103.484 10.1273 103.29 9.57367 103.29 8.877V5.5H104.247V8.822C104.247 9.262 104.368 9.60667 104.61 9.856C104.852 10.1053 105.185 10.23 105.611 10.23C106.102 10.23 106.491 10.0797 106.777 9.779C107.063 9.471 107.206 9.01633 107.206 8.415ZM115.56 5.357C116.183 5.357 116.682 5.55867 117.056 5.962C117.437 6.36533 117.628 6.90433 117.628 7.579V11H116.671V7.612C116.671 7.194 116.561 6.86767 116.341 6.633C116.128 6.391 115.835 6.27 115.461 6.27C115.035 6.27 114.702 6.413 114.46 6.699C114.225 6.97767 114.108 7.392 114.108 7.942V11H113.151V7.612C113.151 7.194 113.044 6.86767 112.832 6.633C112.626 6.391 112.344 6.27 111.985 6.27C111.567 6.27 111.226 6.41667 110.962 6.71C110.705 6.996 110.577 7.40667 110.577 7.942V11H109.62V5.5H110.577V6.237C110.951 5.65033 111.497 5.357 112.216 5.357C112.956 5.357 113.495 5.66867 113.833 6.292C114.214 5.66867 114.79 5.357 115.56 5.357ZM119.78 6.985C119.78 7.337 120.143 7.612 120.869 7.81C121.14 7.86867 121.367 7.931 121.551 7.997C121.741 8.05567 121.947 8.14733 122.167 8.272C122.394 8.39667 122.566 8.56167 122.684 8.767C122.801 8.97233 122.86 9.21433 122.86 9.493C122.86 9.99167 122.665 10.3913 122.277 10.692C121.888 10.9927 121.397 11.143 120.803 11.143C120.275 11.143 119.816 11.0293 119.428 10.802C119.046 10.5673 118.775 10.252 118.614 9.856L119.439 9.383C119.527 9.647 119.692 9.856 119.934 10.01C120.176 10.164 120.465 10.241 120.803 10.241C121.133 10.241 121.397 10.1787 121.595 10.054C121.793 9.92933 121.892 9.74233 121.892 9.493C121.892 9.119 121.529 8.84767 120.803 8.679C120.561 8.613 120.377 8.56167 120.253 8.525C120.128 8.48833 119.956 8.42233 119.736 8.327C119.523 8.23167 119.362 8.13267 119.252 8.03C119.142 7.92 119.039 7.777 118.944 7.601C118.856 7.41767 118.812 7.216 118.812 6.996C118.812 6.51933 118.995 6.127 119.362 5.819C119.736 5.511 120.201 5.357 120.759 5.357C121.206 5.357 121.602 5.45967 121.947 5.665C122.299 5.863 122.563 6.14167 122.739 6.501L121.936 6.952C121.738 6.48267 121.345 6.248 120.759 6.248C120.48 6.248 120.245 6.314 120.055 6.446C119.871 6.578 119.78 6.75767 119.78 6.985Z" fill="white"/>
</svg>
