<svg width="83" height="12" viewBox="0 0 83 12" fill="none" xmlns="http://www.w3.org/2000/svg">
<path d="M1.433 5V5.924C1.74833 5.242 2.32033 4.901 3.149 4.901V5.902C2.67967 5.88 2.27633 6.00467 1.939 6.276C1.60167 6.54733 1.433 6.98367 1.433 7.585V10.5H0.476V5H1.433ZM9.06459 8.19H4.45559C4.55093 8.674 4.77459 9.05533 5.12659 9.334C5.47859 9.60533 5.91859 9.741 6.44659 9.741C7.17259 9.741 7.70059 9.47333 8.03059 8.938L8.84459 9.4C8.30193 10.2287 7.49526 10.643 6.42459 10.643C5.55926 10.643 4.84793 10.3717 4.29059 9.829C3.74793 9.27167 3.47659 8.57867 3.47659 7.75C3.47659 6.914 3.74426 6.22467 4.27959 5.682C4.81493 5.132 5.50793 4.857 6.35859 4.857C7.16526 4.857 7.82159 5.143 8.32759 5.715C8.84093 6.27233 9.09759 6.95433 9.09759 7.761C9.09759 7.90033 9.08659 8.04333 9.06459 8.19ZM6.35859 5.759C5.85259 5.759 5.42726 5.902 5.08259 6.188C4.74526 6.474 4.53626 6.86267 4.45559 7.354H8.12959C8.04893 6.848 7.84726 6.45567 7.52459 6.177C7.20193 5.89833 6.81326 5.759 6.35859 5.759ZM15.2518 9.191L16.4618 5H17.4628L15.7578 10.5H14.7788L13.4918 6.43L12.2048 10.5H11.2258L9.52084 5H10.5218L11.7318 9.18L13.0298 5H13.9538L15.2518 9.191ZM22.7868 5.946V5H23.7438V10.5H22.7868V9.554C22.3175 10.28 21.6245 10.643 20.7078 10.643C19.9305 10.643 19.2742 10.3643 18.7388 9.807C18.1962 9.24233 17.9248 8.55667 17.9248 7.75C17.9248 6.95067 18.1962 6.26867 18.7388 5.704C19.2815 5.13933 19.9378 4.857 20.7078 4.857C21.6245 4.857 22.3175 5.22 22.7868 5.946ZM20.8288 9.719C21.3862 9.719 21.8518 9.532 22.2258 9.158C22.5998 8.76933 22.7868 8.3 22.7868 7.75C22.7868 7.19267 22.5998 6.727 22.2258 6.353C21.8518 5.97167 21.3862 5.781 20.8288 5.781C20.2788 5.781 19.8168 5.97167 19.4428 6.353C19.0688 6.727 18.8818 7.19267 18.8818 7.75C18.8818 8.3 19.0688 8.76933 19.4428 9.158C19.8168 9.532 20.2788 9.719 20.8288 9.719ZM26.1508 5V5.924C26.4661 5.242 27.0381 4.901 27.8668 4.901V5.902C27.3974 5.88 26.9941 6.00467 26.6568 6.276C26.3194 6.54733 26.1508 6.98367 26.1508 7.585V10.5H25.1938V5H26.1508ZM33.0564 5.946V2.8H34.0134V10.5H33.0564V9.554C32.587 10.28 31.894 10.643 30.9774 10.643C30.2 10.643 29.5437 10.3643 29.0084 9.807C28.4657 9.24233 28.1944 8.55667 28.1944 7.75C28.1944 6.95067 28.4657 6.26867 29.0084 5.704C29.551 5.13933 30.2074 4.857 30.9774 4.857C31.894 4.857 32.587 5.22 33.0564 5.946ZM31.0984 9.719C31.6557 9.719 32.1214 9.532 32.4954 9.158C32.8694 8.76933 33.0564 8.3 33.0564 7.75C33.0564 7.19267 32.8694 6.727 32.4954 6.353C32.1214 5.97167 31.6557 5.781 31.0984 5.781C30.5484 5.781 30.0864 5.97167 29.7124 6.353C29.3384 6.727 29.1514 7.19267 29.1514 7.75C29.1514 8.3 29.3384 8.76933 29.7124 9.158C30.0864 9.532 30.5484 9.719 31.0984 9.719ZM38.8183 6.298C38.6203 6.298 38.4516 6.22833 38.3123 6.089C38.173 5.94967 38.1033 5.781 38.1033 5.583C38.1033 5.385 38.173 5.21633 38.3123 5.077C38.4516 4.93767 38.6203 4.868 38.8183 4.868C39.0236 4.868 39.1923 4.93767 39.3243 5.077C39.4636 5.21633 39.5333 5.385 39.5333 5.583C39.5333 5.781 39.4636 5.94967 39.3243 6.089C39.1923 6.22833 39.0236 6.298 38.8183 6.298ZM38.8183 10.621C38.6203 10.621 38.4516 10.5513 38.3123 10.412C38.173 10.2727 38.1033 10.104 38.1033 9.906C38.1033 9.708 38.173 9.53933 38.3123 9.4C38.4516 9.26067 38.6203 9.191 38.8183 9.191C39.0236 9.191 39.1923 9.26067 39.3243 9.4C39.4636 9.53933 39.5333 9.708 39.5333 9.906C39.5333 10.104 39.4636 10.2727 39.3243 10.412C39.1923 10.5513 39.0236 10.621 38.8183 10.621Z" fill="#6A6A6D" fill-opacity="0.5"/>
<path d="M46.3661 6.188H48.2801V7.101H46.3661V9.015H45.4531V7.101H43.5501V6.188H45.4531V4.285H46.3661V6.188ZM51.8543 3.768V2.8H56.6613V3.713L53.8563 10.5H52.7893L55.5723 3.768H51.8543ZM61.1071 6.518C61.9065 6.92867 62.3061 7.552 62.3061 8.388C62.3061 9.092 62.0605 9.64567 61.5691 10.049C61.0705 10.445 60.4361 10.643 59.6661 10.643C58.8961 10.643 58.2655 10.445 57.7741 10.049C57.2828 9.64567 57.0371 9.092 57.0371 8.388C57.0371 7.552 57.4368 6.92867 58.2361 6.518C57.6055 6.122 57.2901 5.561 57.2901 4.835C57.2901 4.13833 57.5211 3.603 57.9831 3.229C58.4525 2.84767 59.0135 2.657 59.6661 2.657C60.3335 2.657 60.8945 2.84767 61.3491 3.229C61.8185 3.603 62.0531 4.13833 62.0531 4.835C62.0531 5.561 61.7378 6.122 61.1071 6.518ZM59.6661 3.636C59.2628 3.636 58.9328 3.74233 58.6761 3.955C58.4268 4.16767 58.3021 4.46833 58.3021 4.857C58.3021 5.23833 58.4305 5.539 58.6871 5.759C58.9438 5.979 59.2701 6.089 59.6661 6.089C60.0621 6.089 60.3885 5.979 60.6451 5.759C60.9018 5.539 61.0301 5.23833 61.0301 4.857C61.0301 4.46833 60.9055 4.16767 60.6561 3.955C60.4068 3.74233 60.0768 3.636 59.6661 3.636ZM59.6661 9.664C60.1648 9.664 60.5608 9.54667 60.8541 9.312C61.1475 9.07733 61.2941 8.74733 61.2941 8.322C61.2941 7.904 61.1475 7.57767 60.8541 7.343C60.5608 7.10833 60.1648 6.991 59.6661 6.991C59.1748 6.991 58.7825 7.10833 58.4891 7.343C58.1958 7.57767 58.0491 7.904 58.0491 8.322C58.0491 8.74733 58.1958 9.07733 58.4891 9.312C58.7825 9.54667 59.1748 9.664 59.6661 9.664ZM68.3307 5.242C68.3307 5.84333 68.173 6.36033 67.8577 6.793H67.8687L65.3827 10.5H64.2277L66.0537 7.805C65.8337 7.81967 65.709 7.827 65.6797 7.827C64.9024 7.827 64.2644 7.58867 63.7657 7.112C63.2744 6.628 63.0287 6.00467 63.0287 5.242C63.0287 4.472 63.2744 3.85233 63.7657 3.383C64.257 2.899 64.895 2.657 65.6797 2.657C66.4497 2.657 67.084 2.899 67.5827 3.383C68.0814 3.85967 68.3307 4.47933 68.3307 5.242ZM65.6797 3.636C65.1957 3.636 64.7997 3.78267 64.4917 4.076C64.191 4.36933 64.0407 4.758 64.0407 5.242C64.0407 5.726 64.191 6.11833 64.4917 6.419C64.7997 6.71233 65.1957 6.859 65.6797 6.859C66.1637 6.859 66.556 6.71233 66.8567 6.419C67.1647 6.11833 67.3187 5.726 67.3187 5.242C67.3187 4.758 67.1684 4.36933 66.8677 4.076C66.567 3.78267 66.171 3.636 65.6797 3.636ZM71.3896 11.27H82.3896V0.27H71.3896V11.27Z" fill="white"/>
</svg>
